<svg width="1040" height="1160" viewBox="0 0 1040 1160" fill="none" xmlns="http://www.w3.org/2000/svg">
<rect width="1040" height="1160" fill="black"/>
<rect x="53" y="100" width="100" height="100" rx="50" fill="white"/>
<rect x="888" y="100" width="100" height="100" rx="50" fill="white"/>
<rect x="454" y="454.553" width="500" height="100" rx="50" transform="rotate(-45 454 454.553)" fill="white"/>
<rect x="516.553" y="525.264" width="500" height="100" rx="50" transform="rotate(-135 516.553 525.264)" fill="white"/>
<rect x="375" y="1014" width="500" height="100" rx="50" transform="rotate(-90 375 1014)" fill="white"/>
<rect x="566" y="1014" width="500" height="100" rx="50" transform="rotate(-90 566 1014)" fill="white"/>
<rect x="424.553" y="631.264" width="500" height="100" rx="50" transform="rotate(-135 424.553 631.264)" fill="white"/>
<rect x="545" y="558.553" width="500" height="100" rx="50" transform="rotate(-45 545 558.553)" fill="white"/>
</svg>
