<svg width="1083" height="1083" viewBox="0 0 1083 1083" fill="none" xmlns="http://www.w3.org/2000/svg">
<rect width="1083" height="1083" fill="white"/>
<rect x="56" y="123" width="100" height="100" rx="50" fill="#FDA049"/>
<rect x="891" y="123" width="100" height="100" rx="50" fill="#FDA049"/>
<rect x="457" y="477.553" width="500" height="100" rx="50" transform="rotate(-45 457 477.553)" fill="#FDA049"/>
<rect x="519.553" y="548.264" width="500" height="100" rx="50" transform="rotate(-135 519.553 548.264)" fill="#FDA049"/>
<rect x="378" y="1037" width="500" height="100" rx="50" transform="rotate(-90 378 1037)" fill="#FFCB44"/>
<rect x="569" y="1037" width="500" height="100" rx="50" transform="rotate(-90 569 1037)" fill="#FFCB44"/>
<rect x="427.553" y="654.264" width="500" height="100" rx="50" transform="rotate(-135 427.553 654.264)" fill="#FFCB44"/>
<rect x="548" y="581.553" width="500" height="100" rx="50" transform="rotate(-45 548 581.553)" fill="#FFCB44"/>
</svg>
